<?xml version="1.0" standalone="no"?>
<!DOCTYPE svg PUBLIC "-//W3C//DTD SVG 20010904//EN"
 "http://www.w3.org/TR/2001/REC-SVG-20010904/DTD/svg10.dtd">
<svg version="1.0" xmlns="http://www.w3.org/2000/svg"
 width="1024.000000pt" height="1024.000000pt" viewBox="0 0 1024.000000 1024.000000"
 preserveAspectRatio="xMidYMid meet">

<g transform="translate(0.000000,1024.000000) scale(0.100000,-0.100000)"
fill="#000000" stroke="none">
<path d="M3455 7398 c-49 -17 -92 -55 -114 -101 l-21 -43 0 -1355 c0 -1468 -1
-1442 55 -1634 72 -248 230 -475 440 -633 153 -115 385 -207 585 -232 121 -14
1286 -14 1331 1 123 42 191 189 140 305 -27 59 -53 89 -106 117 -39 22 -49 22
-685 28 -630 5 -647 6 -725 28 -279 78 -477 264 -577 541 l-23 65 -5 1380 -5
1380 -22 41 c-54 100 -166 147 -268 112z"/>
<path d="M4805 7011 c-76 -20 -143 -78 -165 -147 -20 -61 -8 -159 27 -208 33
-47 80 -82 132 -96 22 -6 264 -10 634 -10 658 0 680 -2 825 -62 214 -89 383
-273 464 -508 l33 -95 5 -1375 c4 -1058 8 -1381 17 -1403 72 -162 272 -193
382 -60 18 21 36 54 42 73 7 23 9 500 7 1435 l-3 1400 -27 100 c-64 240 -166
417 -342 590 -183 180 -411 301 -666 351 -73 14 -174 17 -710 20 -344 1 -638
-1 -655 -5z"/>
</g>
</svg>
